<svg width="553" height="218" viewBox="0 0 553 218" fill="none" xmlns="http://www.w3.org/2000/svg">
<path d="M285.4 80L311.7 78.3C312.3 82.6 313.4 85.8 315.2 88.1C318.1 91.7 322.1 93.5 327.4 93.5C331.3 93.5 334.4 92.6 336.5 90.7C338.5 89.2 339.7 86.8 339.7 84.3C339.7 81.9 338.6 79.6 336.7 78.1C334.7 76.3 330 74.5 322.6 72.9C310.5 70.2 301.8 66.6 296.7 62C291.6 57.7 288.7 51.4 288.9 44.7C288.9 40.1 290.3 35.5 292.9 31.7C295.9 27.4 300 24 304.9 22.1C310.2 19.8 317.6 18.6 326.9 18.6C338.3 18.6 347 20.7 353 25C359 29.2 362.6 36 363.7 45.3L337.7 46.8C337 42.8 335.6 39.9 333.3 38C331 36.1 328 35.2 324.1 35.2C320.9 35.2 318.5 35.9 316.9 37.2C315.4 38.4 314.4 40.2 314.5 42.2C314.5 43.7 315.3 45.1 316.5 46C317.8 47.2 320.9 48.3 325.8 49.3C337.9 51.9 346.5 54.5 351.8 57.2C357.1 59.9 360.9 63.2 363.2 67.1C365.6 71.1 366.8 75.7 366.7 80.4C366.7 86 365.1 91.6 361.9 96.3C358.6 101.2 354 105 348.6 107.3C342.9 109.8 335.7 111.1 327.1 111.1C311.9 111.1 301.4 108.2 295.5 102.3C289.6 96.4 286.1 89 285.4 80ZM6.3 109.6V20.2H52.4C60.9 20.2 67.5 20.9 72 22.4C76.4 23.8 80.3 26.7 82.9 30.6C85.8 34.9 87.2 39.9 87.1 45.1C87.4 53.9 82.9 62.3 75.2 66.7C72.2 68.4 68.9 69.6 65.5 70.2C68 70.9 70.5 72.1 72.7 73.5C74.4 74.9 75.8 76.5 77.1 78.2C78.6 79.9 79.9 81.8 81 83.8L94.4 109.7H63L48.2 82.2C46.3 78.7 44.7 76.4 43.2 75.3C41.2 73.9 38.8 73.2 36.4 73.2H34V109.5H6.3V109.6ZM34 56.4H45.7C48.2 56.2 50.6 55.8 53 55.2C54.8 54.9 56.4 53.9 57.5 52.4C60.2 48.8 59.8 43.7 56.5 40.6C54.7 39.1 51.2 38.3 46.2 38.3H34V56.4ZM0 186.2L26.3 184.5C26.9 188.8 28 192 29.8 194.3C32.6 197.9 36.7 199.8 42 199.8C45.9 199.8 49 198.9 51.1 197C53.1 195.4 54.3 193.1 54.3 190.6C54.3 188.2 53.2 185.9 51.3 184.4C49.3 182.6 44.6 180.8 37.1 179.2C25 176.5 16.3 172.9 11.2 168.3C6.1 164 3.2 157.7 3.4 151C3.4 146.4 4.8 141.8 7.4 138C10.4 133.7 14.5 130.3 19.4 128.4C24.7 126.1 32.1 124.9 41.4 124.9C52.8 124.9 61.5 127 67.5 131.3C73.5 135.6 77 142.3 78.1 151.6L52.1 153.1C51.4 149.1 50 146.2 47.7 144.3C45.5 142.4 42.4 141.5 38.5 141.6C35.3 141.6 32.9 142.3 31.3 143.7C29.7 144.9 28.8 146.7 28.9 148.7C28.9 150.2 29.7 151.6 30.9 152.5C32.2 153.7 35.3 154.8 40.2 155.8C52.3 158.4 60.9 161 66.2 163.7C71.5 166.4 75.3 169.7 77.6 173.6C80 177.6 81.2 182.2 81.2 186.8C81.2 192.4 79.5 197.9 76.4 202.6C73.1 207.5 68.5 211.3 63.1 213.6C57.4 216.1 50.2 217.4 41.6 217.4C26.4 217.4 15.9 214.5 10 208.6C4.1 202.6 0.8 195.2 0 186.2H0Z" fill="white"/>
<path d="M133 179.2L157.2 186.5C155.9 192.6 153.2 198.4 149.5 203.5C146.1 208 141.6 211.5 136.5 213.8C131.3 216.1 124.7 217.3 116.7 217.3C107 217.3 99 215.9 92.9 213.1C86.7 210.3 81.4 205.3 76.9 198.2C72.4 191.1 70.2 182 70.2 170.9C70.2 156.1 74.1 144.7 82 136.8C89.9 128.9 101 124.9 115.4 124.9C126.7 124.9 135.5 127.2 142 131.7C148.4 136.3 153.2 143.3 156.4 152.7L132 158.1C131.4 156 130.5 153.9 129.3 152.1C127.8 150 125.9 148.4 123.6 147.2C121.3 146 118.7 145.5 116.1 145.5C109.8 145.5 105 148 101.7 153.1C99.2 156.8 97.9 162.7 97.9 170.7C97.9 180.6 99.4 187.4 102.4 191.1C105.4 194.8 109.6 196.6 115.1 196.6C120.4 196.6 124.4 195.1 127.1 192.2C129.8 189.1 131.8 184.8 133 179.2ZM189.5 126.4H217.1V157.7H247.3V126.4H275.1V215.8H247.3V179.6H217.1V215.8H189.5V126.4V126.4Z" fill="white"/>
<path d="M271.3 171.1C271.3 156.5 275.4 145.1 283.5 137C291.6 128.9 303 124.8 317.5 124.8C332.4 124.8 343.8 128.8 351.9 136.8C360 144.8 364 156 364 170.4C364 180.9 362.2 189.4 358.7 196.1C355.3 202.7 350 208.1 343.5 211.7C336.8 215.4 328.5 217.3 318.6 217.3C308.5 217.3 300.2 215.7 293.6 212.5C286.8 209.1 281.2 203.8 277.5 197.3C273.4 190.3 271.3 181.6 271.3 171.1ZM298.9 171.2C298.9 180.2 300.6 186.7 303.9 190.7C307.2 194.6 311.8 196.6 317.6 196.6C323.5 196.6 328.1 194.7 331.4 190.8C334.7 186.9 336.3 180 336.3 170C336.3 161.6 334.6 155.4 331.2 151.6C327.8 147.7 323.2 145.8 317.4 145.8C312.3 145.6 307.4 147.8 304 151.7C300.6 155.6 298.9 162.1 298.9 171.2V171.2ZM392.3 171.1C392.3 156.5 396.4 145.1 404.5 137C412.6 128.9 424 124.8 438.5 124.8C453.4 124.8 464.9 128.8 472.9 136.8C480.9 144.8 485 156 485 170.4C485 180.9 483.2 189.4 479.7 196.1C476.3 202.7 471 208.1 464.5 211.7C457.8 215.4 449.5 217.3 439.6 217.3C429.5 217.3 421.2 215.7 414.6 212.5C407.8 209.1 402.2 203.8 398.5 197.3C394.4 190.3 392.3 181.6 392.3 171.1V171.1ZM419.9 171.2C419.9 180.2 421.6 186.7 424.9 190.7C428.2 194.6 432.8 196.6 438.6 196.6C444.5 196.6 449.1 194.7 452.4 190.8C455.7 186.9 457.3 180 457.3 170C457.3 161.6 455.6 155.4 452.2 151.6C448.8 147.7 444.2 145.8 438.4 145.8C433.3 145.6 428.3 147.8 425 151.7C421.6 155.6 419.9 162.1 419.9 171.2V171.2Z" fill="white"/>
<path d="M482.1 126.4H509.7V193.8H552.8V215.8H482V126.4H482.1Z" fill="white"/>
<path d="M451.679 121.241C479.466 100.301 488.035 64.804 470.817 41.9567C453.6 19.1093 417.117 17.5631 389.329 38.5031C361.542 59.4431 352.973 94.9398 370.191 117.787C387.408 140.634 423.891 142.181 451.679 121.241Z" fill="white"/>
<path d="M451.679 121.241C479.466 100.301 488.035 64.804 470.817 41.9567C453.6 19.1093 417.117 17.5631 389.329 38.5031C361.542 59.4431 352.973 94.9398 370.191 117.787C387.408 140.634 423.891 142.181 451.679 121.241Z" fill="white"/>
<path d="M451.679 121.241C479.466 100.301 488.035 64.804 470.817 41.9567C453.6 19.1093 417.117 17.5631 389.329 38.5031C361.542 59.4431 352.973 94.9398 370.191 117.787C387.408 140.634 423.891 142.181 451.679 121.241Z" stroke="white" stroke-width="4" stroke-miterlimit="10"/>
<path d="M392.4 73.3L402.4 66.3L414.7 83.8C416.8 86.6 418.4 89.6 419.6 92.9C420.3 95.4 420.1 98.1 419.1 100.5C417.8 103.5 415.7 106 412.9 107.8C409.6 110.1 406.8 111.4 404.4 111.8C402.1 112.2 399.7 111.8 397.5 110.8C395.1 109.6 393 107.9 391.4 105.7L400 97.7C400.7 98.8 401.6 99.8 402.6 100.6C403.3 101.1 404.1 101.4 405 101.4C405.7 101.4 406.4 101.1 406.9 100.7C407.9 100.1 408.6 98.9 408.5 97.7C408.2 96 407.5 94.3 406.4 93L392.4 73.3V73.3ZM422.4 84.4L431.5 77.2C432.5 78.4 433.8 79.3 435.2 79.8C437.2 80.4 439.3 80 441 78.7C442.2 77.9 443.2 76.8 443.6 75.4C444.2 73.6 443.2 71.6 441.4 71C441.1 70.9 440.8 70.8 440.5 70.8C439.3 70.7 437.2 71.2 434.1 72.5C429 74.6 425 75.4 422 75.1C419.1 74.8 416.4 73.3 414.8 70.8C413.6 69.1 413 67.1 412.9 65.1C412.9 62.8 413.5 60.5 414.8 58.6C416.7 55.9 419 53.6 421.8 51.8C426 48.9 429.7 47.5 432.9 47.5C436.1 47.5 439.1 49 441.9 52.1L432.9 59.2C431.1 56.9 427.7 56.4 425.4 58.2L425.1 58.5C424.1 59.1 423.4 60 423 61.1C422.7 61.9 422.9 62.8 423.4 63.5C423.8 64 424.4 64.4 425.1 64.4C425.9 64.5 427.3 64.1 429.3 63.2C434.3 61.1 438.1 59.9 440.7 59.5C442.9 59.1 445.2 59.3 447.3 60.2C449.2 61 450.8 62.4 451.9 64.1C453.3 66.1 454.1 68.5 454.2 71C454.3 73.6 453.6 76.1 452.2 78.3C450.4 81 448.1 83.3 445.4 85.1C439.9 88.9 435.4 90.5 431.8 89.9C427.9 89.3 424.7 87.3 422.4 84.4V84.4Z" fill="black"/>
</svg>
